# AST/ASF file generated using VICON BodyLanguage
# -----------------------------------------------
:version 1.10
:name VICON
:units
  mass 1.0
  length 0.45
  angle deg
:documentation
   .ast/.asf automatically generated from VICON data using
   VICON BodyBuilder and BodyLanguage model FoxedUp or BRILLIANT.MOD
:root
   order TX TY TZ RX RY RZ
   axis XYZ
   position 0 0 0  
   orientation 0 0 0 
:bonedata
  begin
     id 1 
     name lhipjoint
     direction 0.707368 -0.647095 0.284426 
     length 2.60678 
     axis 0 0 0  XYZ
  end
  begin
     id 2 
     name lfemur
     direction 0.34202 -0.939693 0  
     length 6.63812  
     axis 0 0 20  XYZ
    dof rx ry rz
    limits (-160.0 20.0)
           (-70.0 70.0)
           (-60.0 70.0)
  end
  begin
     id 3 
     name ltibia
     direction 0.34202 -0.939693 0   
     length 7.51178   
     axis 0 0 20   XYZ
    dof rx
    limits (-10.0 170.0)
  end
  begin
     id 4 
     name lfoot
     direction 0.121251 -0.333133 0.935051   
     length 1.83716   
     axis -90 7.62852e-016 20   XYZ
    dof rx rz
    limits (-45.0 90.0)
           (-70.0 20.0)
  end
  begin
     id 5 
     name ltoes
     direction 1.53611e-011 -4.21962e-011 1   
     length 0.916133   
     axis -90 7.62852e-016 20   XYZ
    dof rx
    limits (-90.0 20.0)
  end
  begin
     id 6 
     name rhipjoint
     direction -0.692419 -0.660507 0.290321   
     length 2.55385  
     axis 0 0 0  XYZ 
  end
  begin
     id 7 
     name rfemur
     direction -0.34202 -0.939693 0   
     length 7.29079   
     axis 0 0 -20   XYZ
    dof rx ry rz
    limits (-160.0 20.0)
           (-70.0 70.0)
           (-70.0 60.0)
  end
  begin
     id 8 
     name rtibia
     direction -0.34202 -0.939693 0   
     length 7.47143   
     axis 0 0 -20   XYZ
    dof rx
    limits (-10.0 170.0)
 end
 begin
     id 9 
     name rfoot
     direction -0.119907 -0.329441 0.936532   
     length 1.79439  
     axis -90 -7.62852e-016 -20   XYZ
    dof rx rz
    limits (-45.0 90.0)
           (-20.0 70.0)
  end
  begin
     id 10 
     name rtoes
     direction -1.53571e-011 -4.21961e-011 1   
     length 0.896039   
     axis -90 -7.62852e-016 -20   XYZ
    dof rx
    limits (-90.0 20.0)
  end
  begin
     id 11 
     name lowerback
     direction 0.0367721 0.992912 -0.113016   
     length 1.73542   
     axis 0 0 0   XYZ
    dof rx ry rz
    limits (-20.0 45.0)
           (-30.0 30.0)
           (-30.0 30.0)
  end
  begin
     id 12 
     name upperback
     direction -0.000314626 0.990678 0.136227   
     length 1.7514   
     axis 0 0 0   XYZ
    dof rx ry rz
    limits (-20.0 45.0)
           (-30.0 30.0)
           (-30.0 30.0)
  end
  begin
     id 13 
     name thorax
     direction -0.0226159 0.981151 0.191917   
     length 1.71471   
     axis 0 0 0   XYZ
    dof rx ry rz
    limits (-20.0 45.0)
           (-30.0 30.0)
           (-30.0 30.0)
  end
  begin
     id 14 
     name lowerneck
     direction 0.0219333 0.998071 0.0580739   
     length 1.65882   
     axis 0 0 0   XYZ
    dof rx ry rz
    limits (-20.0 45.0)
           (-30.0 30.0)
           (-30.0 30.0)
  end
  begin
     id 15 
     name upperneck
     direction 0.0384529 0.980058 -0.194957   
     length 1.6612   
     axis 0 0 0   XYZ
    dof rx ry rz
    limits (-20.0 45.0)
           (-30.0 30.0)
           (-30.0 30.0)
  end
  begin
     id 16
     name head
     direction 0.00592123 0.997421 -0.0715234  
     length 1.68077  
     axis 0 0 0   XYZ
    dof rx ry rz
    limits (-20.0 45.0)
           (-30.0 30.0)
           (-30.0 30.0)
  end
  begin
     id 17 
     name lclavicle
     direction 0.904803 0.417826 0.0821728  
     length 3.42227  
     axis 0 0 0   XYZ
    dof ry rz
    limits (-20.0 10.0)
           (0.0 20.0)
  end
  begin
     id 18 
     name lhumerus
     direction 1 -4.48965e-011 -2.68786e-027   
     length 5.11878   
     axis -180 -30 -90   XYZ
    dof rx ry rz
    limits (-60.0 90.0)
           (-90.0 90.0)
           (-90.0 90.0)
  end
  begin
     id 19
     name lradius
     direction 1 -4.48965e-011 2.61168e-028   
     length 3.59971   
     axis -180 -30 -90   XYZ
    dof rx
    limits (-10.0 170.0)
  end
  begin
     id 20
     name lwrist
     direction 1 -4.48965e-011 1.58672e-027   
     length 1.79985   
     axis -1.65735e-015 90 90   XYZ
    dof ry
    limits (-180.0 0.0)
 end
  begin
     id 21 
     name lhand
     direction 1 -4.48942e-011 3.17344e-027   
     length 0.62877   
     axis -2.02492e-015 90 90   XYZ
    dof rx rz
    limits (-90.0 90.0)
           (-45.0 45.0)
  end
  begin
     id 22 
     name lfingers
     direction 1 -4.49011e-011 6.34687e-027   
     length 0.506931   
     axis -4.04985e-015 90 90   XYZ
    dof rx
    limits (0.0 90.0)
  end
  begin
     id 23
     name lthumb
     direction 0.707107 -6.34982e-011 0.707107   
     length 0.727854   
     axis -90 45 2.85299e-015   XYZ
    dof rx rz
    limits (-45.0 45.0)
           (-45.0 45.0)
  end
  begin
     id 24 
     name rclavicle
     direction -0.945647 0.32488 0.0143075   
     length 3.52737  
     axis 0 0 0   XYZ 
    dof ry rz
    limits (-10.0 20.0)
           (-20.0 0.0)
  end
  begin
     id 25 
     name rhumerus
     direction -1 -4.48962e-011 1.92182e-027  
     length 5.4902   
     axis -180 30 90   XYZ
    dof rx ry rz
    limits (-90.0 60.0)
           (-90.0 90.0)
           (-90.0 90.0)
  end
  begin
     id 26 
     name rradius
     direction -1 -4.48967e-011 -5.97193e-028   
     length 3.20659   
     axis -180 30 90   XYZ
    dof rx
    limits (-10.0 170.0)
  end
  begin
     id 27 
     name rwrist
     direction -1 -4.48964e-011 1.58672e-027   
     length 1.6033   
     axis -1.65735e-015 -90 -90   XYZ
    dof ry
    limits (-180.0 0.0)
  end
  begin
     id 28
     name rhand
     direction -1 -4.49006e-011 3.17344e-027   
     length 0.691885   
     axis -2.02492e-015 -90 -90   XYZ
    dof rx rz
    limits (-90.0 90.0)
           (-45.0 45.0)
  end
  begin
     id 29
     name rfingers
     direction -1 -4.48908e-011 6.34687e-027   
     length 0.557815   
     axis -4.04985e-015 -90 -90   XYZ
    dof rx
    limits (0.0 90.0)
  end
  begin
     id 30
     name rthumb
     direction -0.707107 -6.34999e-011 0.707107   
     length 0.800915   
     axis -90 -45 -2.85299e-015   XYZ
    dof rx rz
    limits (-45.0 45.0)
           (-45.0 45.0)
  end
:hierarchy
  begin
    root lhipjoint rhipjoint lowerback
    lhipjoint lfemur
    lfemur ltibia
    ltibia lfoot
    lfoot ltoes
    rhipjoint rfemur
    rfemur rtibia
    rtibia rfoot
    rfoot rtoes
    lowerback upperback
    upperback thorax
    thorax lowerneck lclavicle rclavicle
    lowerneck upperneck
    upperneck head
    lclavicle lhumerus
    lhumerus lradius
    lradius lwrist
    lwrist lhand lthumb
    lhand lfingers
    rclavicle rhumerus
    rhumerus rradius
    rradius rwrist
    rwrist rhand rthumb
    rhand rfingers
  end

#!OML:ASF I:\Actors\actors\Patient Classification 1\Patient 1\Session 1\Subject1.ASF
:FULLY-SPECIFIED
:DEGREES
108
root 0.253531 17.4514 8.16468 11.0191 -6.5637 -8.08294
lowerback -1.8759 -0.0210445 2.97607
upperback -9.42301 0.212874 2.44096
thorax -8.86629 -0.0231201 0.909249
lowerneck -2.1687 -12.3064 -11.7228
upperneck 13.9314 -18.0507 12.9803
head 6.84994 -8.69143 4.52999
rclavicle 7.85199e-015 7.35503e-015
rhumerus -46.6081 -18.0868 -73.8249
rradius 27.4566
rwrist 40.6307
rhand 5.37714 -33.7899
rfingers 7.12502
rthumb 30.7296 -61.2425
lclavicle 7.85199e-015 7.35503e-015
lhumerus -44.9426 18.9807 78.6044
lradius 23.1883
lwrist -28.339
lhand -16.1755 -11.2757
lfingers 7.12502
lthumb 10.0309 18.4653
rfemur -8.67125 26.9279 19.4557
rtibia 3.38663
rfoot -10.6441 -18.5682
rtoes -4.76175
lfemur 3.52585 -43.8428 -12.6095
ltibia -4.10307
lfoot -31.4366 56.5819
ltoes 22.5388
109
root 0.253116 17.4512 8.16462 11.0326 -6.57397 -8.07815
lowerback -1.85359 -0.0137466 2.97597
upperback -9.44311 0.224161 2.43625
thorax -8.90175 -0.0181121 0.90417
lowerneck -2.07035 -12.3224 -11.6888
upperneck 13.8505 -18.077 12.9964
head 6.80895 -8.7078 4.53459
rclavicle -1.55052e-014 2.34566e-014
rhumerus -46.6861 -18.136 -73.7554
rradius 27.4247
rwrist 40.6517
rhand 5.27985 -33.7909
rfingers 7.12502
rthumb 30.6369 -61.2609
lclavicle -1.55052e-014 2.34566e-014
lhumerus -44.8904 18.9063 78.7314
lradius 23.2574
lwrist -28.2708
lhand -16.1748 -11.1801
lfingers 7.12502
lthumb 10.0315 18.5608
rfemur -8.68564 26.9349 19.4478
rtibia 3.37278
rfoot -10.5782 -18.5949
rtoes -4.78571
lfemur 3.49957 -43.8185 -12.5909
ltibia -4.10445
lfoot -31.5153 56.5432
ltoes 22.5938
110
root 0.253299 17.4515 8.1649 11.0203 -6.58664 -8.04803
lowerback -1.81342 -0.0119827 2.94659
upperback -9.45422 0.227671 2.43243
thorax -8.93762 -0.014546 0.916731
lowerneck -1.99562 -12.323 -11.6861
upperneck 13.8313 -18.0856 13.0129
head 6.79235 -8.7148 4.54368
rclavicle -1.59028e-014 4.6118e-014
rhumerus -46.787 -18.2843 -73.5974
rradius 27.4117
rwrist 40.8724
rhand 5.26087 -33.7742
rfingers 7.12502
rthumb 30.6188 -61.2476
lclavicle -1.59028e-014 4.6118e-014
lhumerus -44.8941 18.7539 78.902
lradius 23.3964
lwrist -28.1815
lhand -16.1841 -11.0768
lfingers 7.12502
lthumb 10.0225 18.6645
rfemur -8.65989 26.9514 19.4229
rtibia 3.34253
rfoot -10.53 -18.6614
rtoes -4.96607
lfemur 3.47971 -43.7374 -12.6218
ltibia -4.05796
lfoot -31.6139 56.4128
ltoes 22.7211
111
root 0.253357 17.4517 8.16555 11.0197 -6.60978 -8.01116
lowerback -1.802 -0.0195941 2.89438
upperback -9.4573 0.216897 2.44177
thorax -8.94767 -0.0154302 0.956486
lowerneck -1.95069 -12.3177 -11.7029
upperneck 13.888 -18.0825 12.9784
head 6.80047 -8.71709 4.53797
rclavicle 9.88954e-015 3.12092e-014
rhumerus -46.8546 -18.3965 -73.4619
rradius 27.4142
rwrist 41.039
rhand 5.33652 -33.8531
rfingers 7.12502
rthumb 30.6909 -61.313
lclavicle 9.88954e-015 3.12092e-014
lhumerus -44.9012 18.6277 79.0867
lradius 23.5485
lwrist -27.9678
lhand -16.21 -11.1751
lfingers 7.12502
lthumb 9.99754 18.5675
rfemur -8.64365 27.02 19.3773
rtibia 3.31448
rfoot -10.5552 -18.7306
rtoes -4.92276
lfemur 3.50755 -43.8351 -12.7026
ltibia -4.02526
lfoot -31.913 56.432
ltoes 22.9317
112
root 0.253128 17.4513 8.16622 11.0454 -6.62816 -8.00474
lowerback -1.83433 -0.0331439 2.87701
upperback -9.45123 0.19751 2.46167
thorax -8.92202 -0.0225787 0.988091
lowerneck -1.99411 -12.3252 -11.743
upperneck 13.9789 -18.0971 12.9694
head 6.84183 -8.72262 4.53482
rclavicle -1.00883e-014 -1.31198e-014
rhumerus -46.8495 -18.4092 -73.4007
rradius 27.3933
rwrist 41.0373
rhand 5.43429 -33.8504
rfingers 7.12502
rthumb 30.7841 -61.2928
lclavicle -1.00883e-014 -1.31198e-014
lhumerus -44.8717 18.5394 79.2717
lradius 23.6716
lwrist -27.71
lhand -16.2357 -11.3352
lfingers 7.12502
lthumb 9.97281 18.4086
rfemur -8.65382 27.1284 19.3568
rtibia 3.29386
rfoot -10.5673 -18.811
rtoes -4.91681
lfemur 3.51495 -43.9311 -12.7235
ltibia -4.03425
lfoot -32.0411 56.5396
ltoes 22.942
113
root 0.253263 17.4511 8.16681 11.0521 -6.64045 -7.9842
lowerback -1.85419 -0.0211506 2.88185
upperback -9.41832 0.209965 2.43521
thorax -8.87329 -0.0175661 0.955858
lowerneck -2.10466 -12.3636 -11.7091
upperneck 14.0002 -18.1506 12.9965
head 6.87438 -8.73931 4.52378
rclavicle 2.18663e-015 -2.32578e-014
rhumerus -46.8225 -18.5804 -73.2913
rradius 27.325
rwrist 41.1667
rhand 5.54622 -33.7898
rfingers 7.12502
rthumb 30.8908 -61.2121
lclavicle 2.18663e-015 -2.32578e-014
lhumerus -44.7429 18.401 79.4327
lradius 23.7032
lwrist -27.5619
lhand -16.241 -11.4228
lfingers 7.12502
lthumb 9.96765 18.3212
rfemur -8.64912 27.161 19.3299
rtibia 3.25547
rfoot -10.4658 -18.8601
rtoes -5.32474
lfemur 3.51004 -43.9496 -12.7489
ltibia -4.04534
lfoot -31.8499 56.6367
ltoes 22.705
